<svg width="22" height="23" viewBox="0 0 22 23" fill="none" xmlns="http://www.w3.org/2000/svg">
<g clip-path="url(#clip0_13_183)">
<path d="M11 1C16.799 1 21.5 5.70101 21.5 11.5C21.5 17.299 16.799 22 11 22C5.20101 22 0.5 17.299 0.5 11.5C0.5 5.70101 5.20101 1 11 1Z" stroke="white"/>
<path d="M17.4391 17.7059C17.0592 16.6427 16.2223 15.7033 15.058 15.0332C13.8937 14.3632 12.4671 14 10.9996 14C9.532 14 8.10545 14.3632 6.94116 15.0332C5.77686 15.7033 4.93989 16.6427 4.56006 17.7059" stroke="white" stroke-width="2" stroke-linecap="round"/>
<path d="M11.0003 11.5002C12.8413 11.5002 14.3337 10.0078 14.3337 8.16683C14.3337 6.32588 12.8413 4.8335 11.0003 4.8335C9.15938 4.8335 7.66699 6.32588 7.66699 8.16683C7.66699 10.0078 9.15938 11.5002 11.0003 11.5002Z" stroke="white" stroke-width="2" stroke-linecap="round"/>
</g>
<defs>
<clipPath id="clip0_13_183">
<rect width="22" height="23" fill="white"/>
</clipPath>
</defs>
</svg>
