<svg width="22" height="24" viewBox="0 0 22 24" fill="none" xmlns="http://www.w3.org/2000/svg">
<path d="M22 12C22 5.92487 17.0751 1 11 1C4.92487 1 0 5.92487 0 12C0 18.0751 4.92487 23 11 23C17.0751 23 22 18.0751 22 12Z" fill="#005AA4"/>
<path fill-rule="evenodd" clip-rule="evenodd" d="M6.44254 14.6665C7.77236 13.9012 9.37374 13.5 10.9997 13.5C12.6257 13.5 14.2271 13.9012 15.5569 14.6665L15.557 14.6665C16.8862 15.4315 17.9065 16.5417 18.3809 17.8694C18.5668 18.3895 18.2958 18.9618 17.7757 19.1476C17.2556 19.3334 16.6834 19.0625 16.4975 18.5424C16.2122 17.7438 15.5587 16.9751 14.5594 16.3999M7.44008 16.3999C6.44073 16.9751 5.7872 17.7438 5.50192 18.5423C5.31611 19.0624 4.74387 19.3334 4.22378 19.1476C3.70369 18.9618 3.4327 18.3896 3.6185 17.8695C4.09287 16.5416 5.11327 15.4315 6.44249 14.6665L6.44254 14.6665M7.44013 16.3999C8.43888 15.8252 9.69058 15.5 10.9997 15.5C12.3088 15.5 13.5606 15.8252 14.5593 16.3999" fill="white"/>
<path fill-rule="evenodd" clip-rule="evenodd" d="M11.0003 6.3335C9.71166 6.3335 8.66699 7.37817 8.66699 8.66683C8.66699 9.95549 9.71166 11.0002 11.0003 11.0002C12.289 11.0002 13.3337 9.95549 13.3337 8.66683C13.3337 7.37817 12.289 6.3335 11.0003 6.3335ZM6.66699 8.66683C6.66699 6.2736 8.60709 4.3335 11.0003 4.3335C13.3936 4.3335 15.3337 6.2736 15.3337 8.66683C15.3337 11.0601 13.3936 13.0002 11.0003 13.0002C8.60709 13.0002 6.66699 11.0601 6.66699 8.66683Z" fill="white"/>
</svg>
